<svg xmlns="http://www.w3.org/2000/svg" viewBox="0 0 64 64">
  <rect width="64" height="64" rx="14" fill="#021410"/>
  <path d="M 55.00 32.00 L 53.57 35.87 L 51.58 39.26 L 49.14 42.11 L 46.38 44.37 L 43.40 46.02 L 40.34 47.07 L 37.28 47.53 L 34.34 47.46 L 31.59 46.89 L 29.11 45.90 L 26.95 44.55 L 25.15 42.92 L 23.74 41.09 L 22.72 39.14 L 22.10 37.13 L 21.85 35.15 L 21.95 33.24 L 22.36 31.47 L 23.05 29.88 L 23.96 28.51 L 25.05 27.37 L 26.26 26.49 L 27.54 25.87 L 28.85 25.50 L 30.14 25.37 L 31.37 25.47 L 32.51 25.77 L 33.53 26.24 L 34.40 26.86 L 35.12 27.58 L 35.67 28.38 L 36.05 29.22 L 36.27 30.08 L 36.33 30.91 L 36.24 31.71 L 36.03 32.44 L 35.70 33.09 L 35.29 33.65 L 34.81 34.10 L 34.28 34.44 L 33.73 34.67 L 33.17 34.80 L 32.63 34.82 L 32.11 34.75 L 31.64 34.60 L 31.23 34.38" transform="rotate(0 32 32)" fill="none" stroke="#c9a86a" stroke-width="3.4" stroke-linecap="round"/>
  <path d="M 55.00 32.00 L 53.57 35.87 L 51.58 39.26 L 49.14 42.11 L 46.38 44.37 L 43.40 46.02 L 40.34 47.07 L 37.28 47.53 L 34.34 47.46 L 31.59 46.89 L 29.11 45.90 L 26.95 44.55 L 25.15 42.92 L 23.74 41.09 L 22.72 39.14 L 22.10 37.13 L 21.85 35.15 L 21.95 33.24 L 22.36 31.47 L 23.05 29.88 L 23.96 28.51 L 25.05 27.37 L 26.26 26.49 L 27.54 25.87 L 28.85 25.50 L 30.14 25.37 L 31.37 25.47 L 32.51 25.77 L 33.53 26.24 L 34.40 26.86 L 35.12 27.58 L 35.67 28.38 L 36.05 29.22 L 36.27 30.08 L 36.33 30.91 L 36.24 31.71 L 36.03 32.44 L 35.70 33.09 L 35.29 33.65 L 34.81 34.10 L 34.28 34.44 L 33.73 34.67 L 33.17 34.80 L 32.63 34.82 L 32.11 34.75 L 31.64 34.60 L 31.23 34.38" transform="rotate(120 32 32)" fill="none" stroke="#c9a86a" stroke-width="3.4" stroke-linecap="round"/>
  <path d="M 55.00 32.00 L 53.57 35.87 L 51.58 39.26 L 49.14 42.11 L 46.38 44.37 L 43.40 46.02 L 40.34 47.07 L 37.28 47.53 L 34.34 47.46 L 31.59 46.89 L 29.11 45.90 L 26.95 44.55 L 25.15 42.92 L 23.74 41.09 L 22.72 39.14 L 22.10 37.13 L 21.85 35.15 L 21.95 33.24 L 22.36 31.47 L 23.05 29.88 L 23.96 28.51 L 25.05 27.37 L 26.26 26.49 L 27.54 25.87 L 28.85 25.50 L 30.14 25.37 L 31.37 25.47 L 32.51 25.77 L 33.53 26.24 L 34.40 26.86 L 35.12 27.58 L 35.67 28.38 L 36.05 29.22 L 36.27 30.08 L 36.33 30.91 L 36.24 31.71 L 36.03 32.44 L 35.70 33.09 L 35.29 33.65 L 34.81 34.10 L 34.28 34.44 L 33.73 34.67 L 33.17 34.80 L 32.63 34.82 L 32.11 34.75 L 31.64 34.60 L 31.23 34.38" transform="rotate(240 32 32)" fill="none" stroke="#c9a86a" stroke-width="3.4" stroke-linecap="round"/>
  <circle cx="32" cy="32" r="2.6" fill="#c9a86a"/>
</svg>
